<?xml version="1.0" encoding="UTF-8" standalone="no"?>
<svg width="68px" height="47px" viewBox="0 0 68 47" version="1.1" xmlns="http://www.w3.org/2000/svg" xmlns:xlink="http://www.w3.org/1999/xlink" xmlns:sketch="http://www.bohemiancoding.com/sketch/ns">
    <!-- Generator: Sketch 3.3.1 (12002) - http://www.bohemiancoding.com/sketch -->
    <title>fsb-twitter</title>
    <desc>Created with Sketch.</desc>
    <defs></defs>
    <g id="Page-1" stroke="none" stroke-width="1" fill="none" fill-rule="evenodd" sketch:type="MSPage">
        <g id="FSB-Page" sketch:type="MSArtboardGroup" transform="translate(-321.000000, -552.000000)" fill="#FFFFFF">
            <g id="twitter-box" sketch:type="MSLayerGroup" transform="translate(202.000000, 552.000000)">
                <path d="M184.264094,5.37594617 C184.754644,3.96565289 184.193587,2.44059795 182.834449,1.52250468 C182.06337,0.998426436 181.130276,0.734474619 180.183679,0.734474619 C179.436604,0.734474619 178.689528,0.900241461 178.01896,1.24070105 C176.686824,1.90504354 175.293183,2.4380477 173.838035,2.81421091 C171.056752,1.00607721 167.607902,0 164.063042,0 C155.938216,0 149.207032,5.15152337 148.146425,11.8128001 C141.668766,10.6345804 135.767167,7.60104723 131.515735,3.16869693 C130.705653,2.31946065 129.490529,1.83491142 128.2214,1.83491142 C128.114889,1.83491142 128.002378,1.84128707 127.888366,1.84766271 C126.496225,1.94074717 125.252599,2.60763993 124.549027,3.63029382 C123.120882,5.71003011 122.369306,8.08177107 122.369306,10.4981416 C122.369306,12.1303074 122.70984,13.7178437 123.339904,15.2008193 C122.661835,15.8562359 122.268796,16.7054722 122.268796,17.6031634 C122.268796,21.1837272 123.858957,24.4761117 126.508226,26.949863 C126.34471,27.5670257 126.370212,28.219892 126.608736,28.8447055 C127.52533,31.2853035 129.2025,33.3854418 131.37172,34.9882797 C129.963077,35.2598823 128.504929,35.3988714 127.025779,35.3988714 C126.259201,35.3988714 125.483622,35.3567921 124.702043,35.2815595 C124.537026,35.2637076 124.372009,35.2547817 124.203992,35.2547817 C122.424811,35.2547817 120.813648,36.2009279 120.209086,37.6584009 C119.538518,39.2395616 120.24809,41.0081663 121.910259,41.9173336 C128.01738,45.2415964 135.074097,47 142.315332,47 C165.800218,47 179.913652,30.9333677 180.167178,15.2505494 C182.078372,13.8670338 183.758543,12.274397 185.183687,10.4968664 C185.722242,9.89245503 186.041775,9.14140373 186.041775,8.31894517 C186.041775,7.10884723 185.339703,6.03518815 184.264094,5.37594617 L184.264094,5.37594617 Z M175.881242,13.5176483 C175.908245,13.947367 175.918746,14.380911 175.918746,14.8157302 C175.918746,28.082178 164.039039,43.3786321 142.315332,43.3786321 C135.647155,43.3786321 129.438024,41.7171383 124.208493,38.8684989 C125.128086,38.9552077 126.073182,39.0100383 127.025779,39.0100383 C132.559841,39.0100383 137.651358,37.403375 141.695769,34.7090263 C136.521744,34.6312434 132.163801,31.7252231 130.659148,27.7378931 C131.380721,27.855205 132.121797,27.9202366 132.876373,27.9202366 C133.956483,27.9202366 135.000589,27.7952739 135.989189,27.5670257 C130.58564,26.6400065 126.512727,22.5876448 126.512727,17.7192002 L126.512727,17.5942375 C128.105889,18.3440137 129.928574,18.7954095 131.86377,18.8464147 C128.695448,17.0459318 126.613237,13.9703193 126.613237,10.4892157 C126.613237,8.65047885 127.195296,6.92777883 128.212399,5.44480317 C134.032991,11.5182452 142.738375,15.5132261 152.555373,15.9314686 C152.351352,15.1995442 152.252342,14.429366 152.252342,13.642611 C152.252342,8.10344828 157.538879,3.60861662 164.058541,3.60861662 C167.457887,3.60861662 170.528699,4.82764047 172.682917,6.77476329 C175.36969,6.32719282 177.900447,5.49198296 180.182179,4.34054098 C179.29859,6.68295396 177.424899,8.65047885 174.990152,9.89245503 C177.376894,9.65273068 179.649625,9.11335088 181.770841,8.31129439 C180.19118,10.334925 178.191477,12.1022545 175.881242,13.5176483 L175.881242,13.5176483 Z" id="fsb-twitter" sketch:type="MSShapeGroup"></path>
            </g>
        </g>
    </g>
</svg>