<?xml version="1.0" encoding="utf-8"?>
<!-- Generator: Adobe Illustrator 19.0.0, SVG Export Plug-In . SVG Version: 6.00 Build 0)  -->
<svg version="1.1" id="Layer_1" xmlns="http://www.w3.org/2000/svg" xmlns:xlink="http://www.w3.org/1999/xlink" x="0px" y="0px"
	 viewBox="0 0 258 258" style="enable-background:new 0 0 258 258;" xml:space="preserve">
<style type="text/css">
	.st0{fill:#FFFFFF;}
</style>
<g id="XMLID_3_">
	<path id="XMLID_17_" class="st0" d="M127,243.8c-64.5,0-117-52.5-117-117c0-64.5,52.5-117,117-117c64.5,0,117,52.5,117,117
		C244,191.3,191.5,243.8,127,243.8z M127,15.8c-61.2,0-111,49.8-111,111c0,61.2,49.8,111,111,111c61.2,0,111-49.8,111-111
		C238,65.5,188.2,15.8,127,15.8z"/>
</g>
<g id="XMLID_2_">
	<polygon class="st0" points="94.5,197.8 94.5,57.8 179,127.8 	"/>
</g>
</svg>
