<?xml version="1.0" encoding="UTF-8" standalone="no"?>
<svg width="52px" height="51px" viewBox="0 0 52 51" version="1.1" xmlns="http://www.w3.org/2000/svg" xmlns:xlink="http://www.w3.org/1999/xlink" xmlns:sketch="http://www.bohemiancoding.com/sketch/ns">
    <!-- Generator: Sketch 3.3.1 (12002) - http://www.bohemiancoding.com/sketch -->
    <title>instagram</title>
    <desc>Created with Sketch.</desc>
    <defs></defs>
    <g id="Page-1" stroke="none" stroke-width="1" fill="none" fill-rule="evenodd" sketch:type="MSPage">
        <g id="FSB-Page" sketch:type="MSArtboardGroup" transform="translate(-982.000000, -550.000000)" fill="#FFFFFF">
            <g id="instagram" sketch:type="MSLayerGroup" transform="translate(855.000000, 550.000000)">
                <path d="M169.135367,0 L136.864398,0 C131.700799,0 127.5,4.20086502 127.5,9.36436974 L127.5,41.6356303 C127.5,46.799135 131.700799,51 136.864398,51 L169.135132,51 C174.298966,51 178.5,46.799135 178.5,41.6356303 L178.5,9.36436974 C178.500235,4.20086502 174.299201,0 169.135367,0 L169.135367,0 Z M136.534067,5.34615102 L136.534067,11.1922378 C136.534067,11.9600547 137.156434,12.5824571 137.924231,12.5824571 C138.692028,12.5824571 139.314394,11.9600547 139.314394,11.1922378 L139.314394,5.32929136 L140.503681,5.32929136 L140.503681,11.1922378 C140.503681,11.9600547 141.126047,12.5824571 141.893844,12.5824571 C142.661641,12.5824571 143.284008,11.9600547 143.284008,11.1922378 L143.284008,5.32929136 L144.286279,5.32929136 L144.286279,11.1922378 C144.286279,11.9600547 144.908881,12.5824571 145.676443,12.5824571 C146.444475,12.5824571 147.066842,11.9600547 147.066842,11.1922378 L147.066842,5.32929136 L169.135132,5.32929136 C171.360522,5.32929136 173.17053,7.13936308 173.17053,9.36436974 L173.17053,20.7884278 L163.765722,20.7884278 C161.875362,16.7051121 157.741287,13.8640254 152.953364,13.8640254 C148.16591,13.8640254 144.031835,16.7051121 142.14171,20.7884278 L132.829235,20.7884278 L132.829235,9.36436974 C132.829235,7.25105832 134.463505,5.51521593 136.534067,5.34615102 L136.534067,5.34615102 Z M159.070836,25.7735011 C159.070836,29.1461354 156.32669,31.8900449 152.953599,31.8900449 C149.580977,31.8900449 146.837066,29.1461354 146.837066,25.7735011 C146.837066,22.4006327 149.580977,19.6567232 152.953599,19.6567232 C156.32669,19.6567232 159.070836,22.4006327 159.070836,25.7735011 L159.070836,25.7735011 Z M169.135367,45.6709428 L136.864398,45.6709428 C134.639243,45.6709428 132.829235,43.8606369 132.829235,41.6358644 L132.829235,24.9593201 L141.0753,24.9593201 C141.056974,25.2286063 141.044287,25.4997658 141.044287,25.7737353 C141.044287,32.3405725 146.386914,37.683211 152.953599,37.683211 C159.520988,37.683211 164.863615,32.3405725 164.863615,25.7737353 C164.863615,25.4997658 164.850693,25.2288405 164.832367,24.9593201 L173.17053,24.9593201 L173.17053,41.6358644 C173.170765,43.8604028 171.360757,45.6709428 169.135367,45.6709428 Z M163.524747,10.3541099 C163.524747,9.800026 163.975323,9.35085221 164.531356,9.35085221 L168.783312,9.35085221 C169.339247,9.35085221 169.789921,9.79992817 169.789921,10.3541099 L169.789921,14.5919126 C169.789921,15.1459965 169.339345,15.5951703 168.783312,15.5951703 L164.531356,15.5951703 C163.975421,15.5951703 163.524747,15.1460944 163.524747,14.5919126 L163.524747,10.3541099 Z" sketch:type="MSShapeGroup"></path>
            </g>
        </g>
    </g>
</svg>