<?xml version="1.0" encoding="utf-8"?>
<!-- Generator: Adobe Illustrator 17.0.0, SVG Export Plug-In . SVG Version: 6.00 Build 0)  -->
<!DOCTYPE svg PUBLIC "-//W3C//DTD SVG 1.1//EN" "http://www.w3.org/Graphics/SVG/1.1/DTD/svg11.dtd">
<svg version="1.1" id="Layer_1" xmlns="http://www.w3.org/2000/svg" xmlns:xlink="http://www.w3.org/1999/xlink" x="0px" y="0px"
	 width="250px" height="90px" viewBox="0 0 250 90" enable-background="new 0 0 250 90" xml:space="preserve">
<path fill-rule="evenodd" clip-rule="evenodd" fill="#FFFFFF" d="M129.448,60.188c-2.018,0.254-2.765-1.675-3.269-3.166
	c-1.672-4.954-1.225-11.097-1.225-17.978c0-6.306,0.299-12.552-0.102-18.896c-0.166-2.63-0.63-6.021,1.736-6.129
	c3.114-0.143,2.244,6.021,1.941,8.682c-0.387,3.394-0.984,5.896-1.327,8.682c-0.65,5.25-1.305,14.136,0,18.692
	c0.633,2.215,2.178,4.05,2.757,6.027C130.372,57.513,130.638,58.936,129.448,60.188 M126.588,25.766
	c0.294-2.878,0.822-6.479,0.307-9.5c-0.146-0.025-0.172-0.169-0.307-0.205C125.847,18.588,126.237,23.022,126.588,25.766
	 M128.631,58.247c0.884-0.973-0.044-2.19-0.511-3.064c-0.533-1.001-1.081-2.101-1.634-2.86
	C126.796,54.703,126.843,57.344,128.631,58.247"/>
<path fill-rule="evenodd" clip-rule="evenodd" fill="#FFFFFF" d="M141.808,23.314c5.182-2.651,8.656-7.099,15.22-8.071
	c11.038-1.632,8.17,14.338,8.171,23.494c0,5.133,1.238,11.788,0,17.057c-0.356,1.509-1.207,3.383-2.86,3.064
	c-2.134-0.411-1.041-7.267-0.816-9.295c0.733-6.652,1.831-13.036,1.02-20.122c-0.547-4.782-1.19-10.067-5.924-10.419
	c-3.351-0.249-6.582,1.36-9.09,2.861c-2.683,1.604-4.959,3.629-6.027,5.822c-1.038,2.13-1.046,5.41-1.226,8.477
	c-0.392,6.668-0.332,12.303,1.43,17.569c0.343,1.024,0.947,2.082,1.43,3.371c0.359,0.957,0.994,2.953,0.408,3.983
	c-0.91,1.603-3.382,0.661-4.187-0.716c-2.343-4.005-1.91-11.618-1.532-17.262c0.412-6.148,1.278-11.929,0.817-18.487
	c-0.143-2.022-0.591-4.097-0.41-6.026c0.146-1.54,0.977-3.838,3.065-3.269C143.932,16.065,141.809,20.788,141.808,23.314
	 M158.968,16.675c-1.363-0.175-2.721,0.146-3.678,0.714c7.395-1.594,8.111,5.135,8.478,11.236
	C164.247,23.374,163.332,17.238,158.968,16.675 M140.174,23.109c0.083-1.931,1.173-3.813,0.714-5.618
	C138.743,17.414,139.424,21.815,140.174,23.109 M162.951,50.586c-0.266,1.832-0.964,4.615,0.205,5.822
	c1.212-1.039,1.25-3.364,1.225-5.413c-0.027-2.254-0.277-4.685-0.613-6.435C163.626,46.46,163.25,48.529,162.951,50.586
	 M141.706,60.187c0.832-1.345-0.277-2.913-0.817-4.187c-0.601-1.421-1.107-2.884-1.634-4.188c-0.006-0.062-0.016-0.121-0.102-0.103
	C139.296,55.243,139.242,58.975,141.706,60.187"/>
<path fill-rule="evenodd" clip-rule="evenodd" fill="#FFFFFF" d="M114.638,15.347c1.932,0.487,2.173,2.464,2.246,3.983
	c0.091,1.869-0.279,3.966-0.511,5.72c-1.021,7.708-1.926,14.308-3.984,20.838c-1.416,4.496-2.83,8.825-6.537,10.827
	c-4.377,2.364-10.522,0.306-12.972-1.941c-4.189-3.839-5.927-10.823-7.457-17.569c-0.696-3.072-1.416-6.959-1.43-11.133
	c-0.01-3.373,0.703-9.017,4.291-8.172c1.403,0.331,1.486,2.175,1.634,3.576c0.548,5.178-0.003,9.701,0.613,14.913
	c0.387,3.284,0.96,6.142,1.634,8.784c0.734,2.877,1.452,5.469,3.065,7.252c1.2,1.326,3.422,2.686,5.515,2.758
	c4.024,0.139,6.493-2.63,7.763-4.904c3.106-5.559,2.544-17.629,3.167-26.761C111.885,20.436,111.794,15.247,114.638,15.347
	 M114.23,29.135c0.427-3.185,1.223-8.037,0.511-11.133c-0.103,0.001-0.122-0.083-0.205-0.102c-0.006-0.062-0.015-0.121-0.102-0.102
	c-0.025,0.146-0.168,0.172-0.204,0.307c-0.233,0.239-0.281,0.953-0.307,1.328c-0.425,6.137-0.677,13.26-1.124,19.202
	C113.324,35.642,113.782,32.459,114.23,29.135 M87.161,21.067c-1.281,1.192-1.275,4.743-1.123,7.252
	c0.453,7.534,2.022,14.957,4.698,19.203c-1.938-5.916-4.033-13.174-3.575-21.246c0.097-1.707,0.877-3.486,0.204-5.108
	C87.263,21.169,87.243,21.086,87.161,21.067"/>
<path fill-rule="evenodd" clip-rule="evenodd" fill="#FFFFFF" d="M176.026,27.4c3.702-3.966,7.652-8.543,15.117-7.968
	c1.472,0.113,3.782,0.615,4.904,1.635c1.984,1.805,2.062,5.779,2.041,9.397c-0.016,3.06-0.51,7.303-0.51,10.93
	c0,4.378,0.576,7.048,0.408,11.032c-0.128,3.038-0.643,8.039-3.268,8.07c-2.161,0.024-2.09-2.223-1.635-4.597
	c0.772-4.027,1.893-7.195,2.349-12.053c0.503-5.345,0.759-14.643-1.021-17.67c-2.52-4.286-10.592-2.206-13.79-0.205
	c-3.204,2.006-5.367,4.984-5.72,9.295c-0.543,6.663-0.259,14.95,0.919,21.246c0.405,2.16,0.794,5.358-1.531,5.311
	c-2.97-0.057-1.852-7.479-1.635-10.009c0.693-8.104,0.37-15.482,0.204-23.902c-0.062-3.171-1.047-10.386,1.431-10.93
	c2.76-0.606,2.312,2.986,2.041,5.209C176.089,24.202,175.816,25.899,176.026,27.4 M174.494,18.921
	c-0.933,2.229-0.131,5.704-0.102,8.275c0.189,0.099,0.084-0.97,0.102-1.328c0.117-2.358,0.947-4.965,0.306-6.946H174.494z
	 M182.971,23.416c3.59-1.825,12.594-2.052,13.381,3.064C196.531,20.209,186.414,20.633,182.971,23.416 M195.433,53.651
	c-0.382,1.49-1.185,3.045-0.816,4.596c1.061-0.268,1.305-1.838,1.532-3.064c0.37-2.009,0.522-4.446,0.204-6.333
	C196.158,50.547,195.832,52.099,195.433,53.651 M174.494,60.187c1.061-1.985-0.421-4.677-0.716-6.64
	C173.724,55.684,173.258,59.012,174.494,60.187"/>
<path fill-rule="evenodd" clip-rule="evenodd" fill="#FFFFFF" d="M64.893,57.225c13.887,0.763,26.147,3.5,38.304,6.436
	c6.029,1.456,11.966,3.027,17.773,4.698c5.85,1.686,11.497,3.46,17.466,4.495c6.45,1.118,12.719,1.959,19.101,2.349
	c3.775,0.231,7.353,0.514,10.93,0.409c10.437-0.308,20.002-1.594,27.578-5.72c2.165-1.179,4.879-3.076,6.741-4.597
	c1.867-1.524,4.198-4.425,6.436-4.801c2.185-0.367,5.182,1.231,4.596,4.188c-0.196,0.99-0.967,2.212-1.737,2.962
	c-1.892,1.848-4.853,3.339-7.762,4.596c-5.717,2.471-12.267,4.314-18.795,5.618c-3.419,0.684-6.877,0.712-10.725,0.919
	c-3.8,0.205-7.746,0.146-11.542,0c-18.437-0.703-34.948-4.904-51.582-8.784c-6.646-1.55-13.173-3.289-19.714-4.903
	c-6.241-1.54-12.335-4.306-19.715-4.904c-8.422-0.68-15.421,0.967-18.487,5.823c-1.048,1.66-1.73,5.026-0.716,7.252
	c0.469,1.028,1.616,2.062,2.656,2.043c2.267-0.041,2.918-3.807,5.106-4.086c1.207-0.153,2.158,0.328,2.554,1.124
	c1.171,2.347-1.119,4.745-2.349,5.515c-1.991,1.247-4.957,1.65-7.048,0.716c-5.37-2.4-5.557-12.84-1.021-16.343
	c-8.731,0.648-14.923-1.556-18.896-6.129c-3.769-4.338-6.813-10.973-6.027-18.999c0.708-7.215,3.739-12.789,7.968-17.262
	c4.068-4.304,10.094-7.48,17.16-7.967c12.662-0.873,19.141,5.721,21.552,15.118c2.8,10.915-0.986,22.438-6.844,28.089
	C66.96,55.944,65.824,56.479,64.893,57.225 M42.218,19.534c-3.479,2.829-6.11,6.136-8.171,9.703
	c-2.338,4.044-3.679,8.904-2.553,14.402c0.934,4.574,3.288,8.863,6.231,11.645c5.726,5.412,18.663,5.024,24.82,0.306
	c5.767-4.419,9.913-12.416,9.806-22.574c-0.053-5.022-1.42-9.565-3.576-12.665c-2.623-3.775-7.065-6.469-13.688-5.925
	C49.747,14.866,45.419,16.93,42.218,19.534 M42.116,17.594c0.52-0.37,1.8-0.969,1.634-1.226c-5.979,2.499-9.928,7.573-11.951,13.688
	C34.075,24.858,37.795,20.669,42.116,17.594 M67.55,52.833c0.022-0.079,0.085-0.118,0.205-0.102
	c3.802-4.164,7.439-10.859,6.025-18.897C73.671,42.067,70.867,48.151,67.55,52.833 M87.467,61.822
	c-0.108,0.006-0.08,0.131,0.102,0.102c11.701,3.69,24.183,6.598,36.874,9.295C112.655,67.55,100.677,64.071,87.467,61.822
	 M204.422,69.892c2.397-1.375,4.925-2.634,6.435-4.392c0.842-0.982,1.873-3.512-0.714-3.167c-1.295,0.173-2.481,1.915-3.474,2.758
	c-3.115,2.648-6.768,5.563-10.214,7.456C199.347,72.485,202.01,71.275,204.422,69.892 M61.931,73.773
	c-0.061-0.323-0.386-0.677-0.817-0.716c-1.49-0.132-2.439,2.494-2.86,3.576C59.746,76.357,62.219,75.293,61.931,73.773"/>
</svg>
