<?xml version="1.0" encoding="utf-8"?>
<!-- Generator: Adobe Illustrator 19.0.0, SVG Export Plug-In . SVG Version: 6.00 Build 0)  -->
<svg version="1.1" id="Layer_1" xmlns="http://www.w3.org/2000/svg" xmlns:xlink="http://www.w3.org/1999/xlink" x="0px" y="0px"
	 viewBox="-489 491 20 20" style="enable-background:new -489 491 20 20;" xml:space="preserve">
<style type="text/css">
	.st0{fill:#F1F2F2;}
</style>
<g id="Blkya7_1_">
	<g id="XMLID_1_">
		<path id="XMLID_9_" class="st0" d="M-480.3,491.9c0-0.1,0.1-0.2,0.1-0.3v-0.1c0.1-0.1,0.2-0.1,0.2-0.2c0.1,0,0.1-0.1,0.2-0.1
			s0.1,0,0.1,0.1l0,0h-0.1h-0.1l0,0c-0.1,0-0.2,0.1-0.2,0.2s0,0.2,0.1,0.3c0,0.1,0.1,0.1,0.1,0.1s0,0.1,0.1,0.1
			c0.1,0.1,0.2,0.2,0.3,0.3c0.1,0.1,0.1,0.2,0.1,0.3c0,0,0,0,0.1,0.1c0.1,0.1,0.2,0.2,0.2,0.3c0.1,0,0.2,0.1,0.2,0.3v0.1
			c0,0.1,0.1,0.1,0.1,0.1c0,0.1,0,0.1,0,0.1c0,0.1,0,0.1,0.1,0.1c0,0,0,0,0.1,0c0.1,0.1,0.1,0.1,0.1,0.2s0,0.1,0.1,0.1
			c0.1,0.1,0.1,0.1,0.1,0.2l0,0c0.1,0.1,0.1,0.1,0.1,0.1l0,0c0.1-0.3,0.3-0.5,0.4-0.8c0.1-0.2,0.2-0.3,0.3-0.4
			c0.1-0.2,0.2-0.3,0.3-0.4c0.1-0.1,0.2-0.2,0.3-0.3c0.1-0.1,0.1-0.1,0.2-0.2c0-0.1,0.1-0.1,0.1-0.2v-0.1c0-0.1,0-0.1,0.1-0.1
			s0.1,0,0.1,0s0,0,0.1,0c0,0,0,0,0,0.1s0,0.1,0,0.2c0,0.1-0.1,0.2-0.1,0.3v0.1c0.1,0.1,0,0.1,0,0.2c0,0.1,0,0.1-0.1,0.1
			c-0.1,0.1-0.2,0.3-0.2,0.4s-0.1,0.2-0.1,0.3c-0.1,0.2-0.2,0.4-0.2,0.6c-0.1,0.1-0.1,0.2-0.1,0.3c0.1,0,0.1-0.1,0.1-0.1
			c0.1-0.1,0.2-0.2,0.3-0.2c0,0,0.1,0,0.1-0.1c0.1-0.1,0.1-0.1,0.2-0.1s0.1-0.1,0.2-0.1c0,0,0.1-0.1,0.1,0l0,0c0.1,0,0.1,0,0.2,0
			s0.1,0.1,0.1,0.1s0,0.1-0.1,0.1c-0.1,0.1-0.1,0.2,0,0.3c0,0.1,0.1,0.1,0.1,0.1c0.1,0.1,0.1,0.2,0,0.3c0,0.3-0.1,0.5-0.2,0.8
			c0,0.1-0.1,0.1-0.1,0.2s-0.1,0.1-0.1,0.1c-0.1,0.1-0.1,0.1-0.1,0.1c-0.1,0-0.1,0.1-0.1,0.1v0.1l0,0c0.1,0.1,0.1,0.2,0,0.2
			c-0.1,0.1-0.1,0.2-0.1,0.3c0,0.2,0,0.4-0.1,0.6c0,0.2,0,0.4,0,0.5c0,0.2,0.1,0.3,0.1,0.4c0,0.1,0,0.2,0,0.3c0,0.1,0,0.2-0.1,0.4
			c0,0.2-0.1,0.3-0.1,0.4c-0.1,0.2-0.1,0.4-0.2,0.6c-0.1,0.2-0.2,0.3-0.3,0.4c0,0.1,0,0.1,0,0.1l0.1,0.1c0,0,0,0.1,0.1,0.1
			c0.1,0.1,0.1,0.1,0.1,0.2s0,0.1,0,0.1s0,0.1,0.1,0.1c0.1,0.1,0.1,0.3,0.1,0.4l0,0c0,0.1,0,0.1-0.1,0.1c-0.1,0.1-0.1,0.1-0.2,0.1
			c-0.1,0.1-0.2,0.1-0.3,0.2c-0.1,0-0.1,0.1-0.1,0.1s-0.1,0-0.1,0.1s-0.1,0.1-0.1,0.1s0,0-0.1,0s-0.1,0-0.1,0
			c-0.1-0.1-0.2-0.2-0.2-0.3c0-0.1,0-0.1,0-0.1s0,0,0-0.1c0-0.1-0.1-0.1-0.1-0.1c-0.1-0.1-0.1-0.1-0.1-0.2s0-0.1,0-0.1v-0.1v-0.1
			c0-0.1,0-0.1-0.1-0.1c-0.1-0.1-0.1-0.1-0.2-0.1c-0.1-0.1-0.1-0.1-0.2-0.1c-0.1-0.1-0.2-0.1-0.2-0.2c0-0.1-0.1-0.1-0.1-0.1
			c-0.1-0.2-0.2-0.3-0.3-0.4c0,0,0-0.1-0.1-0.1c-0.1-0.1-0.1-0.2-0.1-0.2c-0.1-0.2-0.1-0.2-0.1-0.3v-0.1c0-0.1-0.1-0.1-0.1-0.1
			s0-0.1-0.1-0.1c-0.3-0.2-0.4-0.4-0.5-0.6c-0.1-0.1-0.2-0.2-0.2-0.4l-0.1-0.1c-0.1-0.1-0.2-0.1-0.2-0.2c0,0,0-0.1-0.1-0.1
			c-0.1,0.1-0.1,0.1-0.1,0.2c-0.1,0.2-0.3,0.4-0.4,0.4s-0.2,0.1-0.2,0.1c-0.1,0-0.1,0.1-0.1,0.1c0,0.1-0.1,0.1-0.1,0.1l-0.1,0.1
			c0,0.1,0,0.1-0.1,0c0.1,0.1,0,0.1,0,0.1c-0.1,0.1-0.1,0.2-0.2,0.3c0,0.1-0.1,0.1-0.1,0.2c-0.1,0.1-0.1,0.2-0.1,0.3
			c0,0.1,0,0.1,0,0.1c0,0.1-0.1,0.1-0.1,0.1s0,0-0.1,0s-0.1,0-0.2,0c-0.1-0.1-0.1-0.1-0.1-0.2s0-0.3,0-0.4s0-0.1,0-0.2
			c0-0.2,0.1-0.3,0.1-0.4c0-0.2,0.1-0.3,0.1-0.4c0.1-0.2,0.1-0.4,0.2-0.5c0.1-0.1,0.1-0.2,0.1-0.3c0.1-0.1,0.1-0.2,0.1-0.3
			c0-0.2,0.1-0.3,0.2-0.4c0.1,0.1,0.1,0,0.1-0.1c0.1-0.1,0.1-0.1,0.1-0.1l0,0c0.1-0.1,0.1,0,0.1,0c0.1,0,0.1,0,0.1,0
			c0.1,0,0.1,0,0.2,0.1c0.2,0,0.4,0.1,0.6,0.1c0.1,0,0.2,0,0.3,0s0.1,0,0.1,0s0,0,0-0.1c-0.1-0.1-0.1-0.1-0.1-0.2c0,0,0,0-0.1-0.1
			c0-0.2-0.1-0.3-0.2-0.4c-0.1-0.2-0.2-0.4-0.3-0.5c-0.1-0.1-0.1-0.2-0.1-0.3c-0.1-0.2-0.1-0.3-0.1-0.4c0-0.2,0-0.4,0-0.5
			c0-0.1,0-0.2,0-0.2c0-0.1,0-0.1,0-0.1s0-0.1-0.1-0.1s-0.1-0.1-0.1-0.1c0-0.1-0.1-0.1-0.1-0.1c-0.2-0.1-0.3-0.2-0.4-0.2
			c-0.2-0.1-0.3-0.2-0.4-0.3c0-0.1-0.1-0.1-0.1-0.1c-0.1-0.1-0.2-0.2-0.3-0.3c-0.1-0.2-0.1-0.3-0.2-0.4c0,0,0-0.1-0.1-0.1
			c0,0,0-0.1-0.1-0.1c0-0.1,0-0.1-0.1-0.1c-0.1-0.1-0.2-0.1-0.3-0.2c-0.1-0.1-0.2-0.1-0.2-0.2c-0.1-0.1-0.1-0.2-0.1-0.2
			c0-0.1,0-0.1,0.1-0.1h0.1c0-0.1,0.1-0.1,0.1,0c0.1,0.1,0.1,0.1,0.2,0.1c0.2,0.1,0.3,0.1,0.4,0.1c0.2,0,0.3,0.1,0.4,0.1h0.1
			c0.1,0,0.2,0.1,0.2,0.1c0.1,0.1,0.1,0.1,0.1,0.1c0.1,0.1,0.1,0.1,0.2,0.2c0.1,0,0.1,0.1,0.1,0.1c0,0.1,0.1,0.1,0.1,0.1
			s0.1,0,0.1,0.1c0.1,0.1,0.2,0.2,0.3,0.3c0.1,0.1,0.1,0.1,0.1,0.2c0.1,0.1,0.1,0.1,0.1,0.1l0.1,0.1c0.1,0,0.1,0.1,0.1,0.1
			c0,0.1,0,0.1-0.1,0.1c0,0.1,0,0.2,0,0.3c0,0.1,0.1,0.2,0.1,0.3c0,0.1,0,0.1,0.1,0.1c0.1,0.1,0.2,0.2,0.3,0.3c0-0.1,0-0.1,0-0.1
			c-0.1-0.1-0.1-0.2,0-0.3c0,0,0,0,0-0.1s0-0.2,0-0.3c0,0,0,0,0-0.1c0-0.1,0-0.2,0.1-0.3c0,0,0,0,0-0.1c-0.1-0.1-0.1-0.2,0.1-0.3
			c0,0,0,0,0-0.1s0-0.2,0.1-0.2c0,0,0,0,0-0.1S-480.4,492-480.3,491.9c-0.1-0.1-0.1-0.1,0-0.2c0.1,0,0.1-0.1,0.1-0.1
			c-0.1-0.1-0.1-0.1-0.1-0.1c-0.1,0-0.1-0.1-0.2-0.1c-0.1,0-0.1,0-0.1-0.1h-0.1c0,0,0,0,0,0.1c0,0,0,0-0.1,0.1
			c0-0.1,0.1-0.1,0.1-0.1s0.1,0,0.1-0.1h0.1c0,0,0,0,0.1,0C-480.5,491.7-480.3,491.8-480.3,491.9L-480.3,491.9L-480.3,491.9z"/>
	</g>
</g>
</svg>
